<svg width="250" height="32" viewBox="0 0 250 32" fill="none" xmlns="http://www.w3.org/2000/svg">
<g id="Logo">
<path id="Subtract" fill-rule="evenodd" clip-rule="evenodd" d="M0 0.51001L17.8863 31.49L35.7726 0.510013L0 0.51001ZM17.8863 13.4183C19.3121 13.4183 20.4679 12.2625 20.4679 10.8367C20.4679 9.41085 19.3121 8.255 17.8863 8.255C16.4605 8.255 15.3046 9.41085 15.3046 10.8367C15.3046 12.2625 16.4605 13.4183 17.8863 13.4183Z" fill="#FB923C"/>
<g id="PIZZA PLACE">
<path d="M67.2436 11.5745C67.2436 12.7871 67.0623 13.8623 66.6998 14.7998C66.3373 15.7374 65.8372 16.5563 65.1997 17.2564C64.5746 17.9564 63.837 18.5502 62.9869 19.0378C62.1368 19.5253 61.2242 19.9254 60.2491 20.2379C59.2865 20.5379 58.2864 20.763 57.2488 20.913C56.2112 21.0505 55.1924 21.1255 54.1923 21.138V29.8764H45.4539C45.4539 27.0136 45.4601 24.1633 45.4726 21.3255C45.4851 18.4877 45.5039 15.6249 45.5289 12.7371C45.5539 11.212 45.5601 9.68682 45.5476 8.16166C45.5351 6.6365 45.5664 5.09884 45.6414 3.54868C47.2415 3.07363 48.8417 2.71735 50.4419 2.47982C52.042 2.2423 53.6922 2.12354 55.3924 2.12354C56.355 2.12354 57.3176 2.20479 58.2802 2.36731C59.2428 2.51733 60.1616 2.7611 61.0367 3.09864C61.9243 3.43617 62.7431 3.86122 63.4932 4.37377C64.2558 4.87382 64.9121 5.47388 65.4622 6.17395C66.0122 6.87403 66.4435 7.67411 66.7561 8.5742C67.0811 9.4618 67.2436 10.4619 67.2436 11.5745ZM58.9178 12.2121C58.9178 11.3995 58.6677 10.7682 58.1677 10.3181C57.6801 9.85559 57.0426 9.62431 56.255 9.62431C55.9924 9.62431 55.7174 9.64931 55.4299 9.69932C55.1549 9.73682 54.8923 9.78683 54.6423 9.84934L54.4173 15.3249C54.5923 15.3499 54.7611 15.3624 54.9236 15.3624C55.0861 15.3624 55.2549 15.3624 55.4299 15.3624C55.8799 15.3624 56.3112 15.2874 56.7238 15.1374C57.1488 14.9874 57.5239 14.7748 57.8489 14.4998C58.1739 14.2123 58.4302 13.881 58.6177 13.506C58.8177 13.1184 58.9178 12.6871 58.9178 12.2121Z" fill="white"/>
<path d="M78.401 3.21115L76.3383 28.7513L68.425 29.1638V3.7362L78.401 3.21115Z" fill="white"/>
<path d="M96.8717 9.02425L88.2833 20.613H96.5717L96.4591 28.5638L79.7324 29.2388L78.9823 21.8881L88.7708 9.13676L79.8074 9.81183L79.7324 2.27355H96.5341L96.8717 9.02425Z" fill="white"/>
<path d="M115.586 9.02425L106.998 20.613H115.286L115.174 28.5638L98.4468 29.2388L97.6968 21.8881L107.485 9.13676L98.5219 9.81183L98.4468 2.27355H115.249L115.586 9.02425Z" fill="white"/>
<path d="M140.789 28.0012L131.488 29.2013L130.363 24.9634H126.087L125.15 29.2013L115.586 28.2637L123.049 3.28616L133.475 2.7611L140.789 28.0012ZM129.688 19.2253L128.262 12.6996L126.875 19.2253H129.688Z" fill="white"/>
<path d="M170.529 11.5745C170.529 12.7871 170.348 13.8623 169.986 14.7998C169.623 15.7374 169.123 16.5563 168.485 17.2564C167.86 17.9564 167.123 18.5502 166.273 19.0378C165.423 19.5253 164.51 19.9254 163.535 20.2379C162.572 20.5379 161.572 20.763 160.535 20.913C159.497 21.0505 158.478 21.1255 157.478 21.138V29.8764H148.74C148.74 27.0136 148.746 24.1633 148.758 21.3255C148.771 18.4877 148.79 15.6249 148.815 12.7371C148.84 11.212 148.846 9.68682 148.833 8.16166C148.821 6.6365 148.852 5.09884 148.927 3.54868C150.527 3.07363 152.127 2.71735 153.728 2.47982C155.328 2.2423 156.978 2.12354 158.678 2.12354C159.641 2.12354 160.603 2.20479 161.566 2.36731C162.528 2.51733 163.447 2.7611 164.322 3.09864C165.21 3.43617 166.029 3.86122 166.779 4.37377C167.542 4.87382 168.198 5.47388 168.748 6.17395C169.298 6.87403 169.729 7.67411 170.042 8.5742C170.367 9.4618 170.529 10.4619 170.529 11.5745ZM162.203 12.2121C162.203 11.3995 161.953 10.7682 161.453 10.3181C160.966 9.85559 160.328 9.62431 159.541 9.62431C159.278 9.62431 159.003 9.64931 158.716 9.69932C158.441 9.73682 158.178 9.78683 157.928 9.84934L157.703 15.3249C157.878 15.3499 158.047 15.3624 158.209 15.3624C158.372 15.3624 158.541 15.3624 158.716 15.3624C159.166 15.3624 159.597 15.2874 160.009 15.1374C160.435 14.9874 160.81 14.7748 161.135 14.4998C161.46 14.2123 161.716 13.881 161.903 13.506C162.103 13.1184 162.203 12.6871 162.203 12.2121Z" fill="white"/>
<path d="M188.044 18.9253L187.256 27.2511L171.467 28.4888C171.542 24.1258 171.623 19.7879 171.711 15.4749C171.811 11.162 171.929 6.82402 172.067 2.46107H181.818C181.53 5.19885 181.255 7.93664 180.993 10.6744C180.73 13.3997 180.543 16.15 180.43 18.9253C181.018 18.9503 181.599 18.9628 182.174 18.9628C182.749 18.9628 183.331 18.9628 183.918 18.9628C184.618 18.9628 185.306 18.9565 185.981 18.944C186.656 18.9315 187.344 18.9253 188.044 18.9253Z" fill="white"/>
<path d="M212.571 28.0012L203.27 29.2013L202.145 24.9634H197.87L196.932 29.2013L187.369 28.2637L194.832 3.28616L205.258 2.7611L212.571 28.0012ZM201.47 19.2253L200.045 12.6996L198.657 19.2253H201.47Z" fill="white"/>
<path d="M231.061 3.24865L230.01 11.162C229.648 11.062 229.285 10.9932 228.923 10.9557C228.56 10.9182 228.198 10.8994 227.835 10.8994C226.91 10.8994 226.029 11.0245 225.191 11.2745C224.354 11.512 223.61 11.8808 222.96 12.3808C222.322 12.8809 221.81 13.506 221.422 14.256C221.047 15.0061 220.86 15.8875 220.86 16.9001C220.86 17.5501 220.96 18.1127 221.16 18.5877C221.372 19.0628 221.666 19.4566 222.041 19.7691C222.416 20.0816 222.86 20.3129 223.372 20.4629C223.885 20.613 224.447 20.688 225.06 20.688C225.523 20.688 226.004 20.638 226.504 20.5379C227.004 20.4379 227.498 20.3067 227.985 20.1442C228.473 19.9816 228.948 19.7941 229.41 19.5816C229.873 19.3691 230.298 19.1503 230.686 18.9253L229.935 27.7387C229.448 27.9887 228.917 28.2137 228.342 28.4138C227.779 28.6013 227.198 28.77 226.598 28.9201C225.998 29.0576 225.398 29.1638 224.797 29.2388C224.197 29.3139 223.622 29.3514 223.072 29.3514C221.485 29.3514 220.003 29.0576 218.628 28.47C217.253 27.8825 216.059 27.0761 215.046 26.051C214.034 25.0259 213.234 23.8195 212.646 22.4319C212.071 21.0317 211.784 19.5253 211.784 17.9127C211.784 15.775 212.09 13.7622 212.702 11.8745C213.315 9.97435 214.215 8.31168 215.403 6.88653C216.59 5.46138 218.059 4.33626 219.809 3.51118C221.572 2.68609 223.597 2.27355 225.885 2.27355C226.748 2.27355 227.629 2.34231 228.529 2.47982C229.442 2.61734 230.286 2.87361 231.061 3.24865Z" fill="white"/>
<path d="M250 2.57358C249.925 3.7487 249.856 4.91132 249.794 6.06144C249.731 7.21156 249.65 8.37418 249.55 9.5493L241.599 9.96185L241.412 12.3246H247L246.587 18.1377L240.962 18.3252L240.774 21.063H248.725C248.65 22.4381 248.569 23.807 248.481 25.1697C248.406 26.5198 248.337 27.8762 248.275 29.2388L232.111 29.6139L232.711 2.57358H250Z" fill="white"/>
</g>
</g>
</svg>
